<svg width="480" height="480" viewBox="0 0 480 480" fill="none" xmlns="http://www.w3.org/2000/svg">
<rect width="480" height="480" rx="240" fill="#4A3172"/>
<path d="M399.991 239.995C311.631 239.995 239.995 168.359 239.995 80C255.071 80 269.661 82.0857 283.489 85.9808C293.689 88.8569 301.784 96.7138 304.66 106.913C313.964 139.979 340.021 166.026 373.087 175.34C383.286 178.216 391.143 186.311 394.019 196.511C397.914 210.339 400 224.929 400 239.995H399.991Z" fill="url(#paint0_linear_2750_84)"/>
<path d="M239.995 232.376V399.99C226.938 399.99 214.244 398.428 202.092 395.466C188.521 392.162 179.045 379.876 179.045 365.905V247.604C179.045 230.776 192.692 217.129 209.52 217.129H224.758C233.176 217.129 239.995 223.948 239.995 232.367V232.376Z" fill="white"/>
<path d="M179.045 274.327C179.045 274.327 179.73 371.143 179.473 371.029C174.607 331.792 145.874 312.412 108.732 304.45C97.59 302.06 88.7616 293.565 85.7332 282.575C81.9999 269.013 80 254.737 80 239.985C117.399 239.985 151.798 252.814 179.045 274.318V274.327Z" fill="url(#paint1_linear_2750_84)"/>
<path d="M399.991 239.995C399.991 255.071 397.905 269.661 394.01 283.489C391.134 293.689 383.277 301.784 373.077 304.66C340.011 313.964 313.955 340.021 304.65 373.086C301.774 383.286 293.679 391.143 283.48 394.019C269.652 397.914 255.061 400 239.995 400C239.995 311.641 311.631 240.005 399.991 240.005V239.995Z" fill="url(#paint2_linear_2750_84)"/>
<path d="M236.138 148.189C234.824 150.77 233.443 153.312 231.995 155.807C202.844 205.93 145.712 239.995 80 239.995C80 225.005 82.0571 210.492 85.9141 196.73C88.4283 187.749 94.8472 180.55 103.247 176.883C138.646 170.236 167.874 148.674 182.14 119.932L211.463 135.275L236.138 148.189Z" fill="url(#paint3_linear_2750_84)"/>
<path d="M239.995 133.332C239.995 116.501 226.351 102.856 209.52 102.856C192.689 102.856 179.045 116.501 179.045 133.332C179.045 150.163 192.689 163.807 209.52 163.807C226.351 163.807 239.995 150.163 239.995 133.332Z" fill="white"/>
<defs>
<linearGradient id="paint0_linear_2750_84" x1="400" y1="239.995" x2="311.505" y2="156.495" gradientUnits="userSpaceOnUse">
<stop stop-color="white" stop-opacity="0.8"/>
<stop offset="1" stop-color="white"/>
</linearGradient>
<linearGradient id="paint1_linear_2750_84" x1="80" y1="305.507" x2="179.531" y2="305.507" gradientUnits="userSpaceOnUse">
<stop offset="0.4" stop-color="white"/>
<stop offset="0.93" stop-color="white" stop-opacity="0.74"/>
</linearGradient>
<linearGradient id="paint2_linear_2750_84" x1="396" y1="247" x2="311.5" y2="316.505" gradientUnits="userSpaceOnUse">
<stop stop-color="white" stop-opacity="0.8"/>
<stop offset="1" stop-color="white"/>
</linearGradient>
<linearGradient id="paint3_linear_2750_84" x1="92.3981" y1="204.252" x2="203.01" y2="147.782" gradientUnits="userSpaceOnUse">
<stop stop-color="white" stop-opacity="0.2"/>
<stop offset="1" stop-color="white" stop-opacity="0.6"/>
</linearGradient>
</defs>
</svg>
