<svg width="480" height="480" viewBox="0 0 480 480" fill="none" xmlns="http://www.w3.org/2000/svg">
<rect width="480" height="480" rx="240" fill="#907AFE"/>
<mask id="path-2-outside-1_0_84" maskUnits="userSpaceOnUse" x="77.8217" y="73.9997" width="328" height="332" fill="black">
<rect fill="white" x="77.8217" y="73.9997" width="328" height="332"/>
<path fill-rule="evenodd" clip-rule="evenodd" d="M399.991 239.995C311.632 239.995 239.996 168.359 239.996 79.9997C255.072 79.9997 269.662 82.0853 283.49 85.9804C293.69 88.8565 301.785 96.7135 304.661 106.913C313.965 139.979 340.022 166.026 373.087 175.34C383.287 178.216 391.144 186.311 394.02 196.511C397.915 210.339 400 224.929 400 239.995H399.991ZM239.997 232.377V399.423C240.309 311.329 311.825 240.005 399.991 240.005C399.99 255.078 397.904 269.664 394.01 283.49C391.134 293.689 383.277 301.784 373.078 304.661C340.012 313.965 313.956 340.021 304.651 373.087C301.775 383.287 293.68 391.144 283.481 394.02C269.653 397.915 255.063 400.001 239.996 400.001V399.991C226.94 399.991 214.246 398.429 202.094 395.467C190.209 392.573 181.465 382.791 179.476 371.022C179.475 371.024 179.474 371.026 179.473 371.027C179.473 371.028 179.472 371.028 179.472 371.028L179.457 370.909C179.361 370.328 179.281 369.742 179.219 369.153C173.68 331.171 145.276 312.283 108.731 304.449C97.5889 302.058 88.7606 293.564 85.7322 282.573C83.2025 273.384 83.7133 266.322 84.3056 258.135C84.5874 254.239 84.8876 250.089 84.8876 245.333C122.286 245.333 151.797 252.812 179.043 274.316V274.326L179.047 274.902V247.605C179.047 230.777 192.694 217.13 209.522 217.13H224.76C233.179 217.13 239.997 223.948 239.997 232.367V232.377ZM209.522 102.856C226.353 102.856 239.997 116.5 239.997 133.331C239.997 150.162 226.353 163.806 209.522 163.806C192.691 163.806 179.047 150.162 179.047 133.331C179.047 116.5 192.691 102.856 209.522 102.856Z"/>
</mask>
<path d="M239.996 79.9997V74.6663H234.663V79.9997H239.996ZM283.49 85.9804L284.938 80.8473L284.936 80.8469L283.49 85.9804ZM304.661 106.913L309.795 105.468L309.794 105.466L304.661 106.913ZM373.087 175.34L374.535 170.207L374.533 170.206L373.087 175.34ZM394.02 196.511L399.153 195.064L399.153 195.063L394.02 196.511ZM400 239.995V245.328H405.334V239.995H400ZM239.997 399.423H234.664L245.331 399.441L239.997 399.423ZM399.991 240.005L405.324 240.006L405.325 234.672H399.991V240.005ZM394.01 283.49L399.143 284.937L399.144 284.936L394.01 283.49ZM373.078 304.661L374.522 309.794L374.525 309.794L373.078 304.661ZM304.651 373.087L309.785 374.535L309.785 374.532L304.651 373.087ZM283.481 394.02L284.927 399.153L284.928 399.153L283.481 394.02ZM239.996 400.001H234.663V405.334H239.996V400.001ZM239.996 399.991H245.33V394.658L239.996 394.658L239.996 399.991ZM202.094 395.467L203.357 390.286L203.356 390.285L202.094 395.467ZM179.476 371.022L184.734 370.133L174.331 369.616L179.476 371.022ZM179.473 371.027L175.509 367.46L175.491 367.48L175.473 367.5L179.473 371.027ZM179.472 371.028L174.179 371.688L174.543 374.603L177.201 375.854L179.472 371.028ZM179.457 370.909L184.749 370.249L184.736 370.144L184.719 370.039L179.457 370.909ZM179.219 369.153L184.522 368.59L184.511 368.486L184.496 368.383L179.219 369.153ZM108.731 304.449L107.613 309.664L107.613 309.664L108.731 304.449ZM85.7322 282.573L80.5901 283.989L80.5905 283.99L85.7322 282.573ZM84.3056 258.135L78.9862 257.75L84.3056 258.135ZM84.8876 245.333V239.999H79.5543V245.333H84.8876ZM179.043 274.316H184.377V271.731L182.347 270.13L179.043 274.316ZM179.043 274.326H173.71V274.345L173.71 274.364L179.043 274.326ZM179.047 274.902L173.714 274.94L184.381 274.902H179.047ZM234.663 79.9997C234.663 171.304 308.687 245.328 399.991 245.328V234.662C314.578 234.662 245.33 165.413 245.33 79.9997H234.663ZM284.936 80.8469C270.642 76.8206 255.566 74.6663 239.996 74.6663V85.333C254.578 85.333 268.682 87.35 282.044 91.114L284.936 80.8469ZM309.794 105.466C306.396 93.416 296.859 84.2088 284.938 80.8473L282.043 91.1136C290.521 93.5043 297.173 100.011 299.528 108.361L309.794 105.466ZM374.533 170.206C343.254 161.395 318.596 136.745 309.795 105.468L299.527 108.358C309.335 143.213 336.789 170.656 371.641 180.473L374.533 170.206ZM399.153 195.063C395.791 183.142 386.584 173.604 374.535 170.207L371.64 180.473C379.989 182.827 386.496 189.48 388.887 197.958L399.153 195.063ZM405.334 239.995C405.334 224.435 403.179 209.358 399.153 195.064L388.886 197.957C392.65 211.319 394.667 225.423 394.667 239.995H405.334ZM399.991 245.328H400V234.662H399.991V245.328ZM245.331 399.423V232.377H234.664V399.423H245.331ZM399.991 234.672C308.886 234.672 234.986 308.373 234.664 399.404L245.331 399.441C245.632 314.285 314.764 245.339 399.991 245.339V234.672ZM399.144 284.936C403.169 270.645 405.323 255.572 405.324 240.006L394.658 240.005C394.657 254.583 392.64 268.684 388.877 282.044L399.144 284.936ZM374.525 309.794C386.575 306.396 395.782 296.858 399.143 284.937L388.877 282.042C386.486 290.521 379.98 297.173 371.63 299.527L374.525 309.794ZM309.785 374.532C318.586 343.254 343.245 318.596 374.522 309.794L371.633 299.527C336.779 309.334 309.325 336.788 299.517 371.642L309.785 374.532ZM284.928 399.153C296.849 395.791 306.387 386.584 309.785 374.535L299.518 371.64C297.164 379.989 290.512 386.496 282.033 388.887L284.928 399.153ZM239.996 405.334C255.557 405.334 270.633 403.18 284.927 399.153L282.035 388.886C268.672 392.65 254.568 394.667 239.996 394.667V405.334ZM234.663 399.991V400.001H245.33V399.991H234.663ZM200.831 400.649C213.395 403.711 226.513 405.324 239.996 405.324L239.996 394.658C227.367 394.657 215.096 393.147 203.357 390.286L200.831 400.649ZM174.217 371.91C176.55 385.714 186.812 397.235 200.832 400.649L203.356 390.285C193.607 387.911 186.38 379.869 184.734 370.133L174.217 371.91ZM183.438 374.595C184.026 373.941 184.303 373.302 184.392 373.089C184.514 372.8 184.584 372.56 184.621 372.427L174.331 369.616C174.366 369.486 174.436 369.248 174.557 368.962C174.619 368.814 174.712 368.61 174.846 368.376C174.974 368.153 175.186 367.818 175.509 367.46L183.438 374.595ZM177.201 375.854C178.407 376.421 179.835 376.537 181.187 376.078C182.373 375.676 183.111 374.966 183.474 374.554L175.473 367.5C175.835 367.09 176.573 366.38 177.758 365.978C179.11 365.519 180.537 365.635 181.743 366.202L177.201 375.854ZM174.165 371.568L174.179 371.688L184.764 370.368L184.749 370.249L174.165 371.568ZM173.915 369.716C173.989 370.408 174.082 371.096 174.195 371.778L184.719 370.039C184.64 369.56 184.574 369.077 184.522 368.59L173.915 369.716ZM107.613 309.664C125.359 313.468 140.685 319.869 152.16 329.569C163.524 339.175 171.359 352.216 173.941 369.922L184.496 368.383C181.54 348.108 172.404 332.714 159.045 321.422C145.797 310.223 128.649 303.264 109.849 299.234L107.613 309.664ZM80.5905 283.99C84.1353 296.854 94.4827 306.847 107.613 309.664L109.85 299.234C100.695 297.27 93.386 290.273 90.8738 281.157L80.5905 283.99ZM78.9862 257.75C78.3933 265.946 77.7935 273.83 80.5901 283.989L90.8742 281.158C88.6115 272.938 89.0334 266.699 89.625 258.519L78.9862 257.75ZM79.5543 245.333C79.5543 249.872 79.2687 253.845 78.9862 257.75L89.625 258.519C89.9061 254.633 90.221 250.305 90.221 245.333H79.5543ZM182.347 270.13C153.899 247.677 123.105 239.999 84.8876 239.999V250.666C121.468 250.666 149.694 257.947 175.739 278.503L182.347 270.13ZM184.377 274.326V274.316H173.71V274.326H184.377ZM184.38 274.865L184.376 274.288L173.71 274.364L173.714 274.94L184.38 274.865ZM173.714 247.605V274.902H184.381V247.605H173.714ZM209.522 211.796C189.749 211.796 173.714 227.831 173.714 247.605H184.381C184.381 233.722 195.64 222.463 209.522 222.463V211.796ZM224.76 211.796H209.522V222.463H224.76V211.796ZM245.331 232.367C245.331 221.003 236.124 211.796 224.76 211.796V222.463C230.233 222.463 234.664 226.894 234.664 232.367H245.331ZM245.331 232.377V232.367H234.664V232.377H245.331ZM245.331 133.331C245.331 113.554 229.299 97.5223 209.522 97.5223V108.189C223.408 108.189 234.664 119.445 234.664 133.331H245.331ZM209.522 169.14C229.299 169.14 245.331 153.107 245.331 133.331H234.664C234.664 147.216 223.408 158.473 209.522 158.473V169.14ZM173.714 133.331C173.714 153.107 189.746 169.14 209.522 169.14V158.473C195.637 158.473 184.381 147.216 184.381 133.331H173.714ZM209.522 97.5223C189.746 97.5223 173.714 113.554 173.714 133.331H184.381C184.381 119.445 195.637 108.189 209.522 108.189V97.5223Z" fill="#AF9FFC" fill-opacity="0.16" mask="url(#path-2-outside-1_0_84)"/>
<path d="M399.988 239.996C311.63 239.996 239.994 168.36 239.994 80.0004C255.07 80.0004 269.66 82.086 283.488 85.9812C293.687 88.8573 301.782 96.7142 304.658 106.914C313.963 139.98 340.019 166.026 373.085 175.34C383.284 178.217 391.141 186.312 394.017 196.511C397.912 210.339 399.998 224.929 399.998 239.996H399.988Z" fill="url(#paint0_linear_0_84)"/>
<path d="M239.997 232.377V399.991C226.94 399.991 214.246 398.429 202.094 395.467C188.523 392.163 179.047 379.877 179.047 365.906V247.605C179.047 230.777 192.694 217.13 209.522 217.13H224.759C233.178 217.13 239.997 223.949 239.997 232.367V232.377Z" fill="white"/>
<path d="M179.044 274.327C179.044 274.327 179.73 371.143 179.473 371.029C174.606 331.792 145.874 312.411 108.732 304.45C97.5897 302.059 88.7615 293.564 85.733 282.574C81.9998 269.012 79.9999 254.737 79.9999 239.985C117.399 239.985 151.797 252.813 179.044 274.317V274.327Z" fill="url(#paint1_linear_0_84)"/>
<path d="M399.988 239.996C399.988 255.072 397.903 269.662 394.008 283.49C391.132 293.69 383.275 301.785 373.075 304.661C340.01 313.965 313.953 340.022 304.649 373.087C301.773 383.287 293.678 391.144 283.478 394.02C269.65 397.915 255.06 400.001 239.994 400.001C239.994 311.642 311.63 240.006 399.988 240.006V239.996Z" fill="url(#paint2_linear_0_84)"/>
<path d="M236.137 148.191C234.823 150.772 233.442 153.314 231.995 155.81C202.843 205.932 145.712 239.998 79.9999 239.998C79.9999 225.008 82.0569 210.494 85.9139 196.732C88.4281 187.752 94.847 180.552 103.247 176.885C138.645 170.238 167.873 148.676 182.139 119.934L211.462 135.277L236.137 148.191Z" fill="url(#paint3_linear_0_84)"/>
<path d="M239.997 133.333C239.997 116.502 226.353 102.858 209.522 102.858C192.691 102.858 179.047 116.502 179.047 133.333C179.047 150.164 192.691 163.808 209.522 163.808C226.353 163.808 239.997 150.164 239.997 133.333Z" fill="white"/>
<defs>
<linearGradient id="paint0_linear_0_84" x1="399.998" y1="239.996" x2="311.503" y2="156.496" gradientUnits="userSpaceOnUse">
<stop stop-color="white" stop-opacity="0.8"/>
<stop offset="1" stop-color="white"/>
</linearGradient>
<linearGradient id="paint1_linear_0_84" x1="79.9999" y1="305.507" x2="179.53" y2="305.507" gradientUnits="userSpaceOnUse">
<stop offset="0.4" stop-color="white"/>
<stop offset="0.93" stop-color="white" stop-opacity="0.74"/>
</linearGradient>
<linearGradient id="paint2_linear_0_84" x1="395.998" y1="247.001" x2="311.498" y2="316.505" gradientUnits="userSpaceOnUse">
<stop stop-color="white" stop-opacity="0.8"/>
<stop offset="1" stop-color="white"/>
</linearGradient>
<linearGradient id="paint3_linear_0_84" x1="92.3979" y1="204.254" x2="203.01" y2="147.785" gradientUnits="userSpaceOnUse">
<stop stop-color="white" stop-opacity="0.2"/>
<stop offset="1" stop-color="white" stop-opacity="0.6"/>
</linearGradient>
</defs>
</svg>
