<svg width="1390" height="332" viewBox="0 0 1390 332" fill="none" xmlns="http://www.w3.org/2000/svg">
<mask id="path-1-outside-1_0_7" maskUnits="userSpaceOnUse" x="-0.178711" y="-0.000488281" width="328" height="332" fill="black">
<rect fill="white" x="-0.178711" y="-0.000488281" width="328" height="332"/>
<path fill-rule="evenodd" clip-rule="evenodd" d="M321.991 165.995C233.632 165.995 161.996 94.3588 161.996 5.99951C177.072 5.99951 191.662 8.08516 205.49 11.9803C215.689 14.8564 223.784 22.7133 226.661 32.913C235.965 65.9787 262.021 92.0256 295.087 101.34C305.286 104.216 313.143 112.311 316.019 122.51C319.914 136.339 322 150.929 322 165.995H321.991ZM161.997 158.377V325.422C162.309 237.329 233.824 166.005 321.991 166.005C321.99 181.077 319.904 195.664 316.01 209.49C313.134 219.689 305.277 227.784 295.077 230.66C262.012 239.965 235.955 266.021 226.651 299.087C223.775 309.287 215.68 317.144 205.48 320.02C191.652 323.915 177.062 326 161.996 326V325.991C148.94 325.991 136.245 324.429 124.094 321.467C112.209 318.573 103.465 308.791 101.475 297.021C101.475 297.024 101.474 297.026 101.473 297.027C101.472 297.028 101.472 297.028 101.471 297.028L101.457 296.908C101.361 296.328 101.281 295.742 101.219 295.153C95.6798 257.171 67.276 238.283 30.731 230.449C19.5885 228.058 10.7603 219.563 7.73178 208.573C5.20213 199.384 5.71295 192.322 6.30523 184.134C6.58703 180.239 6.88726 176.088 6.88726 171.333C44.286 171.333 73.7962 178.812 101.043 200.316V200.326L101.047 200.902V173.605C101.047 156.777 114.694 143.129 131.522 143.129H146.76C155.178 143.129 161.997 149.948 161.997 158.367V158.377ZM131.522 28.8555C148.353 28.8555 161.997 42.4997 161.997 59.3308C161.997 76.1618 148.353 89.806 131.522 89.806C114.691 89.806 101.047 76.1618 101.047 59.3308C101.047 42.4997 114.691 28.8555 131.522 28.8555Z"/>
</mask>
<path d="M161.996 5.99951V0.66619H156.663V5.99951H161.996ZM205.49 11.9803L206.937 6.84714L206.936 6.84674L205.49 11.9803ZM226.661 32.913L231.794 31.4683L231.794 31.4656L226.661 32.913ZM295.087 101.34L296.534 96.2064L296.533 96.206L295.087 101.34ZM316.019 122.51L321.153 121.064L321.152 121.063L316.019 122.51ZM322 165.995V171.328H327.333V165.995H322ZM161.997 325.422H156.664L167.33 325.441L161.997 325.422ZM321.991 166.005L327.324 166.005L327.324 160.672H321.991V166.005ZM316.01 209.49L321.143 210.937L321.143 210.936L316.01 209.49ZM295.077 230.66L296.522 235.794L296.525 235.794L295.077 230.66ZM226.651 299.087L231.784 300.534L231.785 300.532L226.651 299.087ZM205.48 320.02L206.926 325.153L206.928 325.153L205.48 320.02ZM161.996 326H156.663V331.334H161.996V326ZM161.996 325.991H167.329V320.657L161.996 320.657L161.996 325.991ZM124.094 321.467L125.357 316.285L125.356 316.285L124.094 321.467ZM101.475 297.021L106.734 296.133L96.3306 295.616L101.475 297.021ZM101.473 297.027L97.5087 293.459L97.4904 293.48L97.4723 293.5L101.473 297.027ZM101.471 297.028L96.179 297.688L96.5425 300.603L99.2005 301.853L101.471 297.028ZM101.457 296.908L106.749 296.249L106.736 296.144L106.719 296.039L101.457 296.908ZM101.219 295.153L106.522 294.589L106.511 294.486L106.496 294.383L101.219 295.153ZM30.731 230.449L29.6123 235.663L29.6131 235.664L30.731 230.449ZM7.73178 208.573L2.58973 209.989L2.59011 209.99L7.73178 208.573ZM6.30523 184.134L0.985808 183.75L6.30523 184.134ZM6.88726 171.333V165.999H1.55394V171.333H6.88726ZM101.043 200.316H106.376V197.731L104.347 196.13L101.043 200.316ZM101.043 200.326H95.7095V200.345L95.7096 200.363L101.043 200.326ZM101.047 200.902L95.7137 200.94L106.38 200.902H101.047ZM156.663 5.99951C156.663 97.3043 230.686 171.328 321.991 171.328V160.661C236.577 160.661 167.329 91.4133 167.329 5.99951H156.663ZM206.936 6.84674C192.642 2.82045 177.566 0.66619 161.996 0.66619V11.3328C176.578 11.3328 190.681 13.3499 204.044 17.1138L206.936 6.84674ZM231.794 31.4656C228.396 19.4159 218.858 10.2086 206.937 6.84714L204.042 17.1134C212.521 19.5042 219.173 26.0107 221.527 34.3604L231.794 31.4656ZM296.533 96.206C265.254 87.3952 240.595 62.7447 231.794 31.4683L221.527 34.3576C231.335 69.2127 258.789 96.6559 293.641 106.473L296.533 96.206ZM321.152 121.063C317.791 109.142 308.584 99.6042 296.534 96.2064L293.639 106.473C301.989 108.827 308.495 115.479 310.886 123.958L321.152 121.063ZM327.333 165.995C327.333 150.434 325.179 135.358 321.153 121.064L310.886 123.956C314.65 137.319 316.667 151.423 316.667 165.995H327.333ZM321.991 171.328H322V160.661H321.991V171.328ZM167.33 325.422V158.377H156.664V325.422H167.33ZM321.991 160.672C230.885 160.672 156.986 234.373 156.664 325.404L167.33 325.441C167.632 240.285 236.764 171.338 321.991 171.338V160.672ZM321.143 210.936C325.169 196.645 327.323 181.572 327.324 166.005L316.657 166.005C316.656 180.583 314.639 194.684 310.876 208.044L321.143 210.936ZM296.525 235.794C308.574 232.396 317.781 222.858 321.143 210.937L310.877 208.042C308.486 216.521 301.979 223.173 293.63 225.527L296.525 235.794ZM231.785 300.532C240.586 269.254 265.245 244.596 296.522 235.794L293.633 225.526C258.779 235.334 231.325 262.788 221.517 297.642L231.785 300.532ZM206.928 325.153C218.849 321.791 228.386 312.584 231.784 300.534L221.518 297.64C219.163 305.989 212.511 312.496 204.033 314.887L206.928 325.153ZM161.996 331.334C177.556 331.334 192.633 329.179 206.926 325.153L204.034 314.886C190.672 318.65 176.568 320.667 161.996 320.667V331.334ZM156.663 325.991V326H167.329V325.991H156.663ZM122.831 326.649C135.395 329.711 148.513 331.324 161.996 331.324L161.996 320.657C149.366 320.657 137.096 319.147 125.357 316.285L122.831 326.649ZM96.2167 297.91C98.5498 311.714 108.811 323.235 122.832 326.649L125.356 316.285C115.606 313.911 108.38 305.868 106.734 296.133L96.2167 297.91ZM105.437 300.595C106.026 299.941 106.303 299.302 106.392 299.089C106.513 298.8 106.584 298.56 106.62 298.427L96.3306 295.616C96.3661 295.486 96.436 295.248 96.5563 294.961C96.6182 294.814 96.7117 294.609 96.8452 294.376C96.9732 294.153 97.186 293.818 97.5087 293.459L105.437 300.595ZM99.2005 301.853C100.407 302.421 101.834 302.537 103.187 302.078C104.372 301.676 105.111 300.965 105.474 300.554L97.4723 293.5C97.8344 293.09 98.5726 292.38 99.7577 291.978C101.11 291.519 102.537 291.635 103.742 292.202L99.2005 301.853ZM96.1642 297.568L96.179 297.688L106.764 296.368L106.749 296.249L96.1642 297.568ZM95.915 295.716C95.9885 296.408 96.0819 297.096 96.1945 297.777L106.719 296.039C106.639 295.56 106.574 295.076 106.522 294.589L95.915 295.716ZM29.6131 235.664C47.3589 239.468 62.6848 245.869 74.1591 255.568C85.5235 265.175 93.359 278.216 95.941 295.922L106.496 294.383C103.539 274.108 94.4036 258.714 81.0451 247.422C67.7966 236.223 50.6481 229.264 31.8488 225.234L29.6131 235.664ZM2.59011 209.99C6.13489 222.854 16.4823 232.847 29.6123 235.663L31.8497 225.234C22.6947 223.27 15.3856 216.273 12.8735 207.156L2.59011 209.99ZM0.985808 183.75C0.392896 191.946 -0.206851 199.83 2.58973 209.989L12.8738 207.158C10.6111 198.938 11.033 192.698 11.6247 184.519L0.985808 183.75ZM1.55394 171.333C1.55394 175.872 1.26829 179.845 0.985808 183.75L11.6247 184.519C11.9058 180.633 12.2206 176.305 12.2206 171.333H1.55394ZM104.347 196.13C75.8986 173.677 45.1044 165.999 6.88726 165.999V176.666C43.4675 176.666 71.6937 183.947 97.7387 204.503L104.347 196.13ZM106.376 200.326V200.316H95.7095V200.326H106.376ZM106.38 200.865L106.376 200.288L95.7096 200.363L95.7137 200.94L106.38 200.865ZM95.7136 173.605V200.902H106.38V173.605H95.7136ZM131.522 137.796C111.748 137.796 95.7136 153.831 95.7136 173.605H106.38C106.38 159.722 117.64 148.463 131.522 148.463V137.796ZM146.76 137.796H131.522V148.463H146.76V137.796ZM167.33 158.367C167.33 147.003 158.124 137.796 146.76 137.796V148.463C152.233 148.463 156.664 152.894 156.664 158.367H167.33ZM167.33 158.377V158.367H156.664V158.377H167.33ZM167.33 59.3308C167.33 39.5542 151.298 23.5221 131.522 23.5221V34.1888C145.407 34.1888 156.664 45.4452 156.664 59.3308H167.33ZM131.522 95.1394C151.298 95.1394 167.33 79.1073 167.33 59.3308H156.664C156.664 73.2163 145.407 84.4727 131.522 84.4727V95.1394ZM95.7136 59.3308C95.7136 79.1073 111.746 95.1394 131.522 95.1394V84.4727C117.637 84.4727 106.38 73.2163 106.38 59.3308H95.7136ZM131.522 23.5221C111.746 23.5221 95.7136 39.5542 95.7136 59.3308H106.38C106.38 45.4452 117.637 34.1888 131.522 34.1888V23.5221Z" fill="#AF9FFC" fill-opacity="0.16" mask="url(#path-1-outside-1_0_7)"/>
<path d="M321.989 165.995C233.63 165.995 161.994 94.3593 161.994 6C177.07 6 191.66 8.08565 205.488 11.9808C215.688 14.8569 223.782 22.7138 226.659 32.9135C235.963 65.9792 262.019 92.026 295.085 101.34C305.284 104.216 313.141 112.311 316.017 122.511C319.912 136.339 321.998 150.929 321.998 165.995H321.989Z" fill="url(#paint0_linear_0_7)"/>
<path d="M161.997 158.377V325.991C148.94 325.991 136.246 324.429 124.094 321.468C110.523 318.163 101.047 305.877 101.047 291.906V173.605C101.047 156.777 114.694 143.13 131.522 143.13H146.76C155.178 143.13 161.997 149.949 161.997 158.368V158.377Z" fill="white"/>
<path d="M101.044 200.326C101.044 200.326 101.73 297.142 101.473 297.028C96.6062 257.791 67.8739 238.411 30.7323 230.449C19.5899 228.059 10.7616 219.564 7.73312 208.574C3.99992 195.012 2 180.736 2 165.984C39.3987 165.984 73.7975 178.813 101.044 200.317V200.326Z" fill="url(#paint1_linear_0_7)"/>
<path d="M321.989 165.996C321.989 181.072 319.903 195.662 316.008 209.49C313.132 219.69 305.275 227.785 295.075 230.661C262.01 239.965 235.953 266.022 226.649 299.087C223.773 309.287 215.678 317.144 205.478 320.02C191.65 323.915 177.06 326.001 161.994 326.001C161.994 237.642 233.63 166.006 321.989 166.006V165.996Z" fill="url(#paint2_linear_0_7)"/>
<path d="M158.137 74.1909C156.823 76.7718 155.442 79.3145 153.995 81.8097C124.843 131.932 67.712 165.998 2 165.998C2 151.008 4.05706 136.494 7.91407 122.732C10.4283 113.752 16.8471 106.552 25.2468 102.885C60.6456 96.2379 89.8731 74.6766 104.139 45.9346L133.462 61.277L158.137 74.1909Z" fill="url(#paint3_linear_0_7)"/>
<path d="M161.997 59.3327C161.997 42.5017 148.353 28.8574 131.522 28.8574C114.691 28.8574 101.047 42.5017 101.047 59.3327C101.047 76.1637 114.691 89.808 131.522 89.808C148.353 89.808 161.997 76.1637 161.997 59.3327Z" fill="white"/>
<g clip-path="url(#clip0_0_7)">
<path d="M408.665 256.045V102.185H448.378V256.045H408.665Z" fill="white" stroke="white" stroke-width="3.41593" stroke-miterlimit="10"/>
<path d="M430.505 33.0094H409V77H452V55C452 42.8505 442.371 33 430.495 33L430.505 33.0094Z" fill="white" stroke="white" stroke-width="3.41593" stroke-miterlimit="10"/>
<path d="M471.334 256.045V102.185H506.389L509.494 128.246C514.248 119.145 521.127 111.907 530.121 106.533C539.115 101.158 549.709 98.4706 561.915 98.4706C580.942 98.4706 595.728 104.466 606.275 116.458C616.821 128.45 622.1 146.031 622.1 169.19V256.045H582.399V172.916C582.399 159.683 579.712 149.554 574.337 142.519C568.962 135.496 560.578 131.973 549.207 131.973C537.837 131.973 528.891 135.902 521.76 143.761C514.63 151.621 511.059 162.585 511.059 176.643V256.057H471.334V256.045Z" fill="white" stroke="white" stroke-width="3.41593" stroke-miterlimit="10"/>
<path d="M704.906 259.772C691.255 259.772 679.263 257.55 668.92 253.107C658.576 248.664 650.311 242.513 644.101 234.654C637.902 226.795 634.175 217.694 632.933 207.35H672.945C674.187 213.346 677.543 218.47 683.025 222.71C688.508 226.95 695.59 229.064 704.273 229.064C712.956 229.064 719.323 227.308 723.348 223.785C727.385 220.273 729.391 216.236 729.391 211.686C729.391 205.069 726.489 200.578 720.708 198.189C714.915 195.813 706.853 193.484 696.51 191.214C689.893 189.769 683.169 188.013 676.349 185.935C669.529 183.869 663.27 181.229 657.585 178.028C651.9 174.827 647.301 170.695 643.778 165.619C640.255 160.554 638.499 154.296 638.499 146.855C638.499 133.203 643.933 121.725 654.79 112.421C665.647 103.117 680.899 98.4586 700.547 98.4586C718.737 98.4586 733.273 102.699 744.13 111.179C754.987 119.659 761.448 131.34 763.515 146.234H725.975C723.694 134.863 715.118 129.178 700.224 129.178C692.783 129.178 687.038 130.623 683.013 133.526C678.976 136.428 676.97 140.035 676.97 144.383C676.97 148.73 679.968 152.552 685.964 155.239C691.959 157.927 699.926 160.411 709.851 162.68C720.601 165.165 730.478 167.9 739.472 170.898C748.465 173.896 755.656 178.339 761.03 184.239C766.405 190.127 769.092 198.56 769.092 209.524C769.295 219.043 766.811 227.619 761.651 235.275C756.48 242.931 749.039 248.927 739.316 253.262C729.594 257.61 718.116 259.772 704.882 259.772H704.906Z" fill="white" stroke="white" stroke-width="3.41593" stroke-miterlimit="10"/>
<path d="M785.551 324.292V102.185H820.916L825.264 124.209C830.233 117.39 836.79 111.394 844.959 106.222C853.129 101.05 863.723 98.4706 876.754 98.4706C891.23 98.4706 904.153 101.994 915.523 109.017C926.894 116.052 935.887 125.667 942.516 137.861C949.133 150.068 952.441 163.923 952.441 179.426C952.441 194.929 949.133 208.736 942.516 220.835C935.899 232.934 926.906 242.441 915.523 249.369C904.153 256.296 891.218 259.76 876.754 259.76C865.168 259.76 855.04 257.586 846.357 253.25C837.674 248.903 830.639 242.811 825.264 234.952V324.292H785.563H785.551ZM868.369 225.027C880.982 225.027 891.421 220.787 899.698 212.307C907.963 203.827 912.107 192.874 912.107 179.426C912.107 165.977 907.963 154.917 899.698 146.234C891.421 137.551 880.982 133.203 868.369 133.203C855.756 133.203 845.055 137.491 836.885 146.079C828.716 154.666 824.631 165.678 824.631 179.115C824.631 192.552 828.716 203.576 836.885 212.152C845.055 220.739 855.542 225.027 868.369 225.027Z" fill="white" stroke="white" stroke-width="3.41593" stroke-miterlimit="10"/>
<path d="M1022.23 259.772C1009 259.772 998.138 257.646 989.658 253.418C981.178 249.177 974.872 243.54 970.739 236.517C966.595 229.494 964.541 221.731 964.541 213.251C964.541 198.978 970.118 187.404 981.286 178.506C992.453 169.62 1009.2 165.165 1031.53 165.165H1070.61V161.438C1070.61 150.892 1067.62 143.14 1061.62 138.172C1055.62 133.203 1048.17 130.731 1039.28 130.731C1031.22 130.731 1024.19 132.642 1018.19 136.464C1012.2 140.298 1008.47 145.923 1007.02 153.364H968.255C969.282 142.197 973.068 132.475 979.578 124.209C986.087 115.944 994.519 109.578 1004.86 105.135C1015.21 100.692 1026.78 98.4706 1039.61 98.4706C1061.52 98.4706 1078.79 103.953 1091.41 114.905C1104.02 125.87 1110.33 141.385 1110.33 161.438V256.045H1076.51L1072.79 231.226C1068.24 239.503 1061.88 246.323 1053.71 251.698C1045.54 257.072 1035.04 259.76 1022.23 259.76V259.772ZM1031.22 228.754C1042.59 228.754 1051.43 225.027 1057.75 217.586C1064.06 210.145 1068.03 200.948 1069.69 189.984H1035.88C1025.33 189.984 1017.79 191.895 1013.24 195.717C1008.68 199.551 1006.42 204.245 1006.42 209.835C1006.42 215.83 1008.68 220.488 1013.24 223.797C1017.79 227.105 1023.78 228.766 1031.22 228.766V228.754Z" fill="white" stroke="white" stroke-width="3.41593" stroke-miterlimit="10"/>
<path d="M1129.56 256.045V102.185H1164.92L1168.65 131.029C1174.23 121.104 1181.83 113.197 1191.45 107.297C1201.06 101.409 1212.39 98.4586 1225.42 98.4586V140.334H1214.25C1205.57 140.334 1197.82 141.683 1190.98 144.371C1184.16 147.058 1178.84 151.716 1175 158.333C1171.17 164.95 1169.27 174.158 1169.27 185.947V256.057H1129.57L1129.56 256.045Z" fill="white" stroke="white" stroke-width="3.41593" stroke-miterlimit="10"/>
<path d="M1233.79 256.045V32.708H1273.49V164.544L1328.09 102.197H1375.24L1312.27 172.307L1385.48 256.057H1335.85L1273.5 178.817V256.057H1233.8L1233.79 256.045Z" fill="white" stroke="white" stroke-width="3.41593" stroke-miterlimit="10"/>
</g>
<defs>
<linearGradient id="paint0_linear_0_7" x1="321.998" y1="165.995" x2="233.503" y2="82.4952" gradientUnits="userSpaceOnUse">
<stop stop-color="white" stop-opacity="0.8"/>
<stop offset="1" stop-color="white"/>
</linearGradient>
<linearGradient id="paint1_linear_0_7" x1="2" y1="231.506" x2="101.53" y2="231.506" gradientUnits="userSpaceOnUse">
<stop offset="0.4" stop-color="white"/>
<stop offset="0.93" stop-color="white" stop-opacity="0.74"/>
</linearGradient>
<linearGradient id="paint2_linear_0_7" x1="317.998" y1="173.001" x2="233.498" y2="242.505" gradientUnits="userSpaceOnUse">
<stop stop-color="white" stop-opacity="0.8"/>
<stop offset="1" stop-color="white"/>
</linearGradient>
<linearGradient id="paint3_linear_0_7" x1="14.3981" y1="130.254" x2="125.01" y2="73.7851" gradientUnits="userSpaceOnUse">
<stop stop-color="white" stop-opacity="0.2"/>
<stop offset="1" stop-color="white" stop-opacity="0.6"/>
</linearGradient>
<clipPath id="clip0_0_7">
<rect width="987.226" height="295" fill="white" transform="translate(402 31)"/>
</clipPath>
</defs>
</svg>
